<svg xmlns="http://www.w3.org/2000/svg" xmlns:svg="http://www.w3.org/2000/svg" id="svg3763" width="15" height="15" version="1.1" viewBox="0 0 15 15"><metadata id="metadata3769"/><path id="path3773" d="M 7.5371094 0.037109375 A 7.5 7.5 0 0 0 0.037109375 7.5371094 A 7.5 7.5 0 0 0 7.5371094 15.037109 A 7.5 7.5 0 0 0 15.037109 7.5371094 A 7.5 7.5 0 0 0 7.5371094 0.037109375 z M 7.8867188 1.9335938 L 9.0195312 1.9335938 L 8.8105469 2.9375 L 7.6660156 2.9375 C 7.2319879 2.9375 6.9144965 3.0236545 6.7148438 3.1972656 C 6.515191 3.3708767 6.3719618 3.6833767 6.2851562 4.1347656 L 6.1542969 4.7734375 L 8.1347656 4.7734375 L 7.9511719 5.6972656 L 5.9726562 5.6972656 L 4.6972656 12.064453 L 3.4980469 12.064453 L 4.7753906 5.6972656 L 3.6289062 5.6972656 L 3.8105469 4.7734375 L 4.9570312 4.7734375 L 5.0605469 4.265625 C 5.2254774 3.4496528 5.5299479 2.8587239 5.9726562 2.4941406 C 6.4240451 2.1208767 7.062066 1.9335938 7.8867188 1.9335938 z M 7.1699219 8.3632812 L 8.0175781 8.3632812 L 8.8691406 9.921875 L 10.337891 8.3632812 L 11.185547 8.3632812 L 9.1777344 10.492188 L 10.392578 12.738281 L 9.5449219 12.738281 L 8.6152344 11.019531 L 6.9980469 12.738281 L 6.1503906 12.738281 L 8.3105469 10.449219 L 7.1699219 8.3632812 z"/></svg>